<svg height="18" viewBox="0 0 2000 330" fill="none" xmlns="http://www.w3.org/2000/svg"><g clip-path="url(#clip0_1_185)"><path d="M193.017 57.4255L9.2627 184.908C3.4583 188.935 -0.00319778 195.552 2.21675e-06 202.617L0.0247022 262.611C0.0271022 267.773 1.5288 272.738 4.241 276.961C4.9648 278.088 5.8857 279.011 6.9277 279.712L47.589 309.285C47.934 309.698 48.3299 310.08 48.8003 310.407L56.2908 315.613C63.5187 320.637 72.1102 323.329 80.9123 323.329H203.065C205.443 323.329 207.372 321.401 207.372 319.022V227.944C207.372 225.565 205.443 223.636 203.065 223.636H161.237C157.127 223.636 153.121 224.932 149.79 227.339L77.325 279.697C73.7781 282.26 68.9778 282.222 65.4717 279.604L49.0381 267.331C45.7378 264.866 45.8173 259.894 49.1948 257.536L195.446 155.434C202.916 150.251 207.372 141.736 207.372 132.645V64.9381C207.372 57.5587 199.08 53.2192 193.017 57.4255Z" fill="currentColor"></path><path d="M10.1765 0.394043C4.59087 0.394043 0.0628662 4.92204 0.0628662 10.5076V48.7456C0.0628662 52.5545 1.92797 56.1219 5.05567 58.2956L55.4009 93.2842C62.5825 98.2753 72.1102 98.2752 79.2918 93.2842L166.004 33.0209C169.335 30.7064 173.293 29.4659 177.349 29.4659H231.946C236.309 29.4659 239.845 33.0023 239.845 37.3647V250.8C239.845 266.927 247.742 282.032 260.985 291.235L300.741 318.865C304.878 321.74 309.796 323.281 314.834 323.281H333.287C336.734 323.281 339.529 320.487 339.529 317.04V72.9482C339.529 56.8214 331.632 41.7167 318.389 32.5133L282.648 7.67444C275.828 2.93454 267.721 0.394043 259.415 0.394043H10.1765Z" fill="currentColor"></path><path d="M593.632 0.394043H655.911L779.088 323.328H728.34L693.741 229.217H555.34L520.741 323.328H470.454L593.632 0.394043ZM678.516 187.234L624.541 40.5314L570.565 187.234H678.516Z" fill="currentColor"></path><path d="M794.203 101.427H833.877V130.491C847.256 106.502 874.014 94.9677 904.001 94.9677C958.438 94.9677 992.578 128.185 992.578 189.541V323.328H947.827V193.694C947.827 154.018 928.45 135.567 895.697 135.567C861.557 135.567 838.953 159.095 838.953 195.077V323.328H794.203L794.203 101.427Z" fill="currentColor"></path><path d="M1055.71 269.813V140.641H997.587V101.427H1055.71V34.9959H1098.85V101.427H1168.51V140.641H1098.85V261.049C1098.85 277.197 1105.31 284.115 1122.38 284.115H1168.51V323.328H1109C1070.71 323.328 1055.71 308.105 1055.71 269.813Z" fill="currentColor"></path><path d="M1174.96 211.224C1174.96 139.718 1219.24 94.9677 1282.45 94.9677C1348.42 94.9677 1389.02 137.873 1389.02 205.689C1389.02 211.686 1388.55 217.684 1387.63 226.91H1219.24C1221.09 267.509 1246 291.958 1285.67 291.958C1311.97 291.958 1330.43 279.963 1339.19 260.125H1384.86C1371.02 303.032 1336.88 329.788 1285.67 329.788C1219.24 329.788 1174.96 283.194 1174.96 211.224ZM1343.8 191.849V189.542C1343.8 155.403 1321.66 130.953 1282.45 130.953C1245.08 130.953 1221.09 155.864 1219.24 191.849H1343.8Z" fill="currentColor"></path><path d="M1408.57 101.427H1448.24V137.412C1453.78 115.268 1470.39 101.427 1496.68 101.427H1539.13V140.641H1492.53C1464.85 140.641 1453.32 156.326 1453.32 186.313V323.328H1408.57V101.427Z" fill="currentColor"></path><path d="M1553.88 14.9001H1603.7V67.9534H1553.88V14.9001ZM1556.65 101.427H1601.4V323.328H1556.65V101.427Z" fill="currentColor"></path><path d="M1621.04 212.148C1621.04 142.024 1668.09 94.9678 1735.45 94.9678C1803.26 94.9678 1849.86 142.024 1849.86 212.148C1849.86 282.732 1803.26 329.788 1735.45 329.788C1668.09 329.788 1621.04 282.732 1621.04 212.148ZM1735.45 289.192C1776.51 289.192 1803.72 258.28 1803.72 212.148C1803.72 166.476 1776.51 135.567 1735.45 135.567C1694.85 135.567 1667.17 166.476 1667.17 212.148C1667.17 258.28 1694.85 289.192 1735.45 289.192Z" fill="currentColor"></path><path d="M1869.44 101.427H1909.12V137.412C1914.65 115.268 1931.26 101.427 1957.56 101.427H2000V140.641H1953.4C1925.72 140.641 1914.19 156.326 1914.19 186.313V323.328H1869.44V101.427Z" fill="currentColor"></path></g><defs><clipPath id="clip0_1_185"><rect width="2000" height="329.394" fill="white" transform="translate(0 0.394043)"></rect></clipPath></defs></svg>